<?xml version="1.0" encoding="UTF-8"?>
<svg id="Layer_1" data-name="Layer 1" xmlns="http://www.w3.org/2000/svg" viewBox="0 0 6595.75 1987.76">
  <defs>
    <style>
      .cls-1 {
        fill: #fff;
      }

      .cls-2 {
        fill: #8054fe;
      }
    </style>
  </defs>
  <path class="cls-1" d="M595.69,343.48h270.3l489.64,1346.87h-249.09l-86.56-238.6H442.68l-86.56,238.6H107.03L595.81,343.48h-.12ZM528.39,1217.04h405.02l-203-555.11-202.02,555.11h0ZM1504.86,1690.34l-.98-962.08h234.7l.98,85.59c32.8-34.63,71.81-61.81,117.41-81.81,45.48-20.48,94.61-30.85,147.28-30.85s70.59,5.24,105.83,15.36l-92.42,236.65c-24.38-9.63-48.77-14.39-73.15-14.39-37.8,0-72.54,9.39-103.88,27.92-30.85,17.92-55.47,42.67-74.13,74.13-17.92,30.85-26.94,65.11-26.94,102.9v546.45h-234.7v.12ZM2898.3,728.38h234.7v962.08h-234.7l-10.61-119.36c-26.21,43.04-61.2,77.91-104.85,104.85-43.04,26.21-94,39.5-153.01,39.5s-137.89-13.53-200.07-40.36c-62.3-26.94-117.04-64.13-164.47-111.56-46.82-47.43-83.64-102.29-110.58-164.47-26.21-62.3-39.5-128.87-39.5-200.07s12.44-133.02,37.55-193.37c25.6-60.35,61.2-113.14,106.8-158.74,45.48-45.48,98.15-81.08,157.77-106.8,59.62-25.6,123.75-38.53,192.39-38.53s120.21,14.14,170.2,42.31c50.72,28.16,93.64,64.13,128.87,107.78l-10.61-123.14h0l.12-.12ZM2624.1,1489.29c49.99,0,94.25-12.44,132.77-37.55,38.53-24.99,68.64-58.77,90.47-100.95,21.82-43.04,32.8-90.1,32.8-141.43s-10.85-99-32.8-141.43c-21.82-43.04-52.3-76.93-91.32-102.05-38.53-24.99-82.42-37.55-131.8-37.55s-94.61,12.8-135.7,38.53c-40.36,24.99-72.79,58.77-97.17,100.95-23.77,42.31-35.6,89.37-35.6,141.43s12.19,99,36.58,141.43c24.38,42.31,56.82,75.96,97.17,100.95,41.09,24.99,85.95,37.55,134.6,37.55h0v.12ZM3842.09,701.44c93.64,0,178.98,22.8,255.91,68.4,76.93,45.48,138.26,106.8,183.74,183.74,45.48,76.32,68.4,161.06,68.4,253.96s-13.17,135.7-39.5,197.27c-26.21,61.57-62.91,115.83-109.73,162.52s-100.1,82.42-161.67,108.75c-60.96,26.21-126.68,39.5-197.27,39.5s-113.87-13.53-160.69-40.36c-46.21-27.55-84.98-63.16-116.43-106.8v122.17h-234.7V247.53h234.7v601.32c31.46-43.65,70.23-78.88,116.43-105.83,46.82-27.55,100.34-41.33,160.69-41.33h0v-.12l.12-.12ZM3839.29,1488.32c49.99,0,95.22-12.44,135.7-37.55,41.09-25.6,73.76-59.62,98.15-102.05,24.38-42.31,36.58-89.37,36.58-141.43s-12.19-98.15-36.58-140.45c-24.26-43.04-57.06-76.93-98.15-102.05-41.09-24.99-86.32-37.55-135.7-37.55s-92.42,12.8-130.82,38.53c-38.41,24.99-68.64,59.01-90.47,102.05-21.82,42.31-32.8,88.88-32.8,139.48s10.85,99.37,32.8,142.4c21.82,42.31,51.94,75.96,90.47,100.95,38.41,24.99,82.17,37.55,130.82,37.55h0v.12ZM4928.04,1715.46c-88.52,0-169.35-22.8-242.38-68.4-72.54-45.48-130.46-106.44-174.1-182.88-43.04-76.93-64.5-161.91-64.5-254.94s12.44-136.31,37.55-197.27c24.99-61.57,59.25-115.46,102.9-161.67,44.26-46.82,95.59-83.39,153.87-109.73,58.28-26.34,120.58-39.5,186.66-39.5s168.98,22.8,241.53,68.4c73.15,45.48,131.19,106.8,174.1,183.74,43.65,76.93,65.35,162.28,65.35,255.91s-12.44,135.33-37.55,196.29c-25.12,60.96-59.62,114.73-103.88,161.67-43.65,46.21-94.61,82.42-153.01,108.75-57.67,26.21-119.97,39.5-186.66,39.5h0l.12.12ZM4928.04,1480.64c46.82,0,88.76-12.44,126.07-37.55,37.19-24.99,66.45-58.03,87.54-99,21.82-41.09,32.8-85.95,32.8-134.6s-11.22-95.59-33.65-136.55c-21.82-41.7-51.57-74.74-89.37-99-37.19-24.99-78.27-37.55-123.14-37.55s-87.91,12.44-124.97,37.55c-37.19,24.99-66.69,58.4-88.52,100.1-21.82,41.7-32.8,86.93-32.8,135.7s11.22,96.56,33.65,137.65c22.43,41.09,52.3,73.76,89.37,98.15,37.8,23.77,78.88,35.6,123.14,35.6h0v-.24l-.12-.24ZM6074.47,963.08h-186.66v727.26h-234.7v-727.26h-142.4v-234.7h142.4v-302h234.7v302h186.66v234.7h0Z"/>
  <path class="cls-2" d="M6311.36,1715.46c-33.28,0-61.81-11.58-85.59-34.63-23.17-23.77-34.63-52.67-34.63-86.56s11.58-60.96,34.63-84.61c23.77-23.77,52.3-35.6,85.59-35.6s61.81,11.83,85.59,35.6c23.77,23.77,35.6,51.94,35.6,84.61s-11.83,62.91-35.6,86.56c-23.65,23.17-52.3,34.63-85.59,34.63Z"/>
</svg>