<?xml version="1.0" encoding="UTF-8"?>
<svg id="Layer_1" data-name="Layer 1" xmlns="http://www.w3.org/2000/svg" viewBox="0 0 6595.75 1987.76">
  <defs>
    <style>
      .cls-1 {
        fill: #0a0a0a;
      }

      .cls-2 {
        fill: #8054fe;
      }
    </style>
  </defs>
  <path class="cls-1" d="M615.85,341.85h271.14l491.14,1350.83h-249.85l-86.82-239.25H462.58l-86.82,239.25H125.91L616.03,341.85h-.18ZM548.29,1217.95h406.16l-203.59-556.76-202.57,556.76ZM1527.8,1692.68l-.92-964.85h235.38l.92,85.9c32.81-34.75,72.07-62.12,117.69-82.02,45.71-20.55,94.84-30.87,147.64-30.87,35.39,0,70.78,5.16,106.17,15.48l-92.62,237.32c-24.42-9.68-48.85-14.47-73.36-14.47-37.97,0-72.72,9.31-104.24,28.02-30.87,17.97-55.67,42.76-74.28,74.28-17.97,30.87-27,65.25-27,103.22v548h-235.38ZM2925.17,727.83h235.38v964.85h-235.38l-10.6-119.63c-26.36,43.13-61.47,78.15-105.16,105.16-43.13,26.36-94.19,39.54-153.45,39.54-71.43,0-138.34-13.55-200.73-40.55-62.39-27-117.42-64.33-164.97-111.89-46.91-47.56-83.96-102.58-110.96-164.97-26.36-62.39-39.54-129.3-39.54-200.73s12.53-133.45,37.6-193.91c25.71-60.46,61.47-113.54,107.09-159.17,45.71-45.71,98.43-81.38,158.24-107.09,59.81-25.71,124.14-38.62,192.99-38.62,63.68,0,120.64,14.19,170.78,42.49,50.78,28.29,93.91,64.33,129.3,108.11l-10.6-123.5v-.09ZM2650.16,1491.03c50.14,0,94.56-12.53,133.18-37.6,38.62-25.07,68.85-58.89,90.69-101.29,21.84-43.13,32.81-90.41,32.81-141.84s-10.97-99.35-32.81-141.84c-21.84-43.13-52.44-77.23-91.7-102.3-38.62-25.07-82.67-37.6-132.16-37.6s-94.84,12.9-136.03,38.62c-40.55,25.07-72.99,58.89-97.42,101.29-23.78,42.49-35.67,89.77-35.67,141.84s12.26,99.35,36.68,141.84c24.42,42.49,56.96,76.22,97.42,101.29,41.2,25.07,86.17,37.6,135.11,37.6h-.09ZM3871.77,700.83c93.91,0,179.44,22.86,256.67,68.48,77.23,45.62,138.61,107.09,184.33,184.33,45.71,76.59,68.48,161.47,68.48,254.74,0,70.14-13.18,136.03-39.54,197.78-26.36,61.75-63.04,116.12-109.95,163.04-46.36,46.36-100.37,82.67-162.11,109.03-61.1,26.36-127,39.54-197.78,39.54-60.46,0-114.19-13.55-161.1-40.55-46.36-27.65-85.25-63.32-116.77-107.09v122.58h-235.38V245.36h235.38v603.02c31.52-43.78,70.41-79.08,116.77-106.17,47-27.65,100.64-41.47,161.1-41.47l-.09.09ZM3868.92,1490.11c50.14,0,95.48-12.53,136.03-37.6,41.2-25.71,74.01-59.81,98.43-102.3,24.42-42.49,36.68-89.77,36.68-141.84s-12.26-98.43-36.68-140.82c-24.42-43.13-57.23-77.23-98.43-102.3-41.2-25.07-86.54-37.6-136.03-37.6s-92.62,12.9-131.24,38.62c-38.62,25.07-68.85,59.17-90.69,102.3-21.84,42.49-32.81,89.12-32.81,139.9s10.97,99.72,32.81,142.76c21.84,42.49,52.07,76.22,90.69,101.29,38.62,25.07,82.3,37.6,131.24,37.6ZM4960.86,1717.75c-88.75,0-169.86-22.86-243.13-68.48-72.72-45.71-130.87-106.82-174.65-183.31-43.13-77.23-64.61-162.39-64.61-255.66,0-70.78,12.53-136.68,37.6-197.78,25.07-61.75,59.54-115.76,103.22-162.11,44.42-46.91,95.85-83.59,154.37-109.95,58.52-26.36,120.92-39.54,187.18-39.54,88.75,0,169.49,22.86,242.2,68.48,73.36,45.71,131.52,107.09,174.65,184.33,43.78,77.23,65.62,162.76,65.62,256.67,0,70.14-12.53,135.76-37.6,196.86-25.07,61.1-59.81,115.11-104.24,162.11-43.78,46.36-94.84,82.67-153.45,109.03-57.88,26.36-120.27,39.54-187.18,39.54v-.18ZM4960.86,1482.37c46.91,0,89.12-12.53,126.36-37.6,37.33-25.07,66.54-58.25,87.83-99.35,21.84-41.2,32.81-86.17,32.81-135.11s-11.24-95.85-33.73-137.05c-21.84-41.84-51.8-74.93-89.77-99.35-37.33-25.07-78.52-37.6-123.5-37.6s-88.11,12.53-125.43,37.6-66.91,58.52-88.75,100.37c-21.84,41.84-32.81,87.19-32.81,136.03s11.24,96.77,33.73,137.97c22.49,41.2,52.44,74.01,89.77,98.43,37.97,23.78,79.08,35.67,123.5,35.67h0ZM6110.68,963.31h-187.18v729.47h-235.48v-729.47h-142.76v-235.38h142.76v-302.94h235.48v302.94h187.18v235.38h0Z"/>
  <path class="cls-2" d="M6348.28,1717.75c-33.46,0-62.03-11.61-85.9-34.75-23.13-23.78-34.75-52.72-34.75-86.82s11.61-61.1,34.75-84.88c23.87-23.78,52.44-35.67,85.9-35.67s62.12,11.89,85.9,35.67c23.87,23.78,35.67,52.07,35.67,84.88s-11.89,63.04-35.67,86.82c-23.78,23.13-52.35,34.75-85.9,34.75Z"/>
</svg>