<svg xmlns="http://www.w3.org/2000/svg" id="Layer_1" data-name="Layer 1" viewBox="384.57 364.13 352.08 352.08">
  <defs>
    <style>
      .cls-1 {
        fill: #fff;
      }

      .cls-2 {
        fill: #0a0a0a;
      }

      .cls-3 {
        fill: #8054fe;
      }
    </style>
  </defs>
  <path class="cls-2" d="M560.61,364.13h0c97.23,0,176.04,78.82,176.04,176.04h0c0,97.23-78.82,176.04-176.04,176.04h0c-97.23,0-176.04-78.82-176.04-176.04h0c-.01-97.22,78.81-176.04,176.04-176.04Z"/>
  <path class="cls-3" d="M650.65,628.2c-4.29,0-7.96-1.48-11.01-4.44-2.97-3.04-4.45-6.75-4.45-11.11s1.48-7.82,4.45-10.86c3.05-3.04,6.72-4.57,11.01-4.57s7.96,1.52,11.01,4.57c3.05,3.04,4.58,6.67,4.58,10.86s-1.53,8.06-4.58,11.11c-3.05,2.96-6.72,4.44-11.01,4.44Z"/>
  <path class="cls-1" d="M517.81,452.15h34.75l62.95,172.81h-32.03l-11.13-30.61h-74.21l-11.13,30.61h-32.03s62.83-172.81,62.83-172.81ZM509.15,564.23h52.07l-26.1-71.22-25.97,71.22h0Z"/>
</svg>