<?xml version="1.0" encoding="UTF-8"?>
<svg id="Layer_1" data-name="Layer 1" xmlns="http://www.w3.org/2000/svg" viewBox="0 0 3677.99 3400.94">
  <defs>
    <style>
      .cls-1 {
        fill: #fff;
      }

      .cls-2 {
        fill: #0a0a0a;
      }

      .cls-3 {
        fill: #8054fe;
      }
    </style>
  </defs>
  <path class="cls-2" d="M1806.98,93.95h0c887.31,0,1606.52,719.3,1606.52,1606.52h0c0,887.31-719.3,1606.52-1606.52,1606.52h0c-887.31,0-1606.52-719.3-1606.52-1606.52h0c-.09-887.22,719.21-1606.52,1606.52-1606.52Z"/>
  <path class="cls-3" d="M2628.67,2503.82c-39.15,0-72.64-13.51-100.48-40.52-27.1-27.74-40.61-61.6-40.61-101.39s13.51-71.36,40.61-99.11c27.83-27.74,61.33-41.71,100.48-41.71s72.64,13.87,100.48,41.71c27.83,27.74,41.8,60.87,41.8,99.11s-13.96,73.55-41.8,101.39c-27.83,27.01-61.33,40.52-100.48,40.52Z"/>
  <path class="cls-1" d="M1416.39,897.21h317.12l574.47,1577.04h-292.3l-101.57-279.34h-677.23l-101.57,279.34h-292.3l573.38-1577.04h0ZM1337.36,1920.04h475.18l-238.19-649.94-237,649.94h0Z"/>
</svg>