<svg width="7442" height="7442" viewBox="0 0 7442 7442" fill="none" xmlns="http://www.w3.org/2000/svg">
<path d="M3721 0C5776.17 0 7442 1666.04 7442 3721C7442 5776.18 5775.96 7442 3721 7442C1665.82 7442 1.94691e-05 5775.97 1.94691e-05 3721C-0.207954 1666.04 1665.82 0 3721 0Z" fill="#0A0A0A"/>
<path d="M5624.19 5581.71C5533.51 5581.71 5455.94 5550.42 5391.46 5487.85C5328.68 5423.61 5297.4 5345.18 5297.4 5253.01C5297.4 5160.85 5328.68 5087.73 5391.46 5023.46C5455.92 4959.2 5533.51 4926.85 5624.19 4926.85C5714.86 4926.85 5792.43 4958.97 5856.92 5023.46C5921.38 5087.71 5953.73 5164.44 5953.73 5253.01C5953.73 5341.59 5921.4 5423.38 5856.92 5487.85C5792.45 5550.42 5714.86 5581.71 5624.19 5581.71Z" fill="#8054FE"/>
<path d="M2816.31 1860.49H3550.82L4881.4 5513.22H4204.39L3969.13 4866.21H2400.54L2165.28 5513.22H1488.27L2816.31 1860.49ZM2633.27 4229.57H3733.88L3182.18 2724.18L2633.25 4229.57H2633.27Z" fill="white"/>
</svg>
